<svg xmlns="http://www.w3.org/2000/svg" viewBox="0 0 64 64">
  <defs>
    <radialGradient id="bg" cx="0.5" cy="0.15" r="0.95">
      <stop offset="0" stop-color="#3a1414"/>
      <stop offset="0.6" stop-color="#1a0a0a"/>
      <stop offset="1" stop-color="#0a0404"/>
    </radialGradient>
    <linearGradient id="ag" x1="0" y1="0" x2="0" y2="1">
      <stop offset="0" stop-color="#ffffff"/>
      <stop offset="0.55" stop-color="#e8eef4"/>
      <stop offset="1" stop-color="#a9b2bc"/>
    </linearGradient>
  </defs>
  <rect width="64" height="64" rx="14" fill="url(#bg)"/>
  <path fill="url(#ag)" transform="translate(7.286 38.388) scale(0.03571 -0.03571)" d="M205 -102V561Q205 566 212.5 567.5Q220 569 227.0 567.5Q234 566 234 561V-102Q234 -106 227.0 -107.5Q220 -109 212.5 -107.5Q205 -106 205 -102ZM137 392Q137 363 154.5 342.0Q172 321 199.5 305.5Q227 290 258 275Q291 258 321.5 239.0Q352 220 371.5 194.5Q391 169 391 131Q391 91 367.5 58.5Q344 26 303.5 7.0Q263 -12 211 -12Q163 -12 120.0 0.0Q77 12 61 25Q57 27 55.0 32.0Q53 37 53 46L48 159Q48 164 53.0 164.5Q58 165 60 161Q78 130 102.0 95.0Q126 60 157.0 35.5Q188 11 226 11Q246 11 263.0 18.5Q280 26 291.0 42.5Q302 59 302 85Q302 119 283.0 142.5Q264 166 235.0 184.5Q206 203 175 219Q145 235 117.5 253.0Q90 271 72.0 295.0Q54 319 54 353Q54 394 78.5 422.0Q103 450 143.0 465.0Q183 480 228 480Q263 480 297.5 472.5Q332 465 351 457Q361 454 363.5 449.0Q366 444 366 437V342Q366 339 361.0 337.5Q356 336 354 339Q351 346 340.5 365.0Q330 384 312.0 405.0Q294 426 269.0 441.5Q244 457 211 457Q171 457 154.0 438.0Q137 419 137 392Z M455 0Q453 0 453.0 6.0Q453 12 455 12Q495 12 518.0 17.0Q541 22 551.5 37.0Q562 52 562 81V433Q562 508 527 508Q514 508 496.5 500.0Q479 492 456 476Q453 474 449.5 479.0Q446 484 448 485L653 632Q657 634 660 634Q667 634 667 627V81Q667 52 676.0 37.0Q685 22 708.5 17.0Q732 12 773 12Q776 12 776.0 6.0Q776 0 773 0Q742 0 700.0 1.0Q658 2 614 2Q572 2 529.0 1.0Q486 0 455 0Z M1099 335 1110 353Q1179 353 1229.5 331.0Q1280 309 1308.0 270.5Q1336 232 1336 181Q1336 129 1306.0 87.0Q1276 45 1223.5 20.5Q1171 -4 1105 -4Q1078 -4 1036.5 -1.0Q995 2 961 2Q925 2 892.5 1.0Q860 0 834 0Q831 0 831.0 6.0Q831 12 834 12Q862 12 877.5 17.0Q893 22 899.5 37.0Q906 52 906 81V544Q906 573 900.0 587.5Q894 602 878.5 607.5Q863 613 835 613Q833 613 833.0 619.0Q833 625 835 625Q861 625 893.0 623.5Q925 622 961 622Q990 622 1021.0 625.0Q1052 628 1084 628Q1144 628 1186.5 613.5Q1229 599 1252.0 570.5Q1275 542 1275 499Q1275 444 1231.0 398.5Q1187 353 1099 335ZM1069 606Q1050 606 1038.5 600.0Q1027 594 1022.5 580.5Q1018 567 1018 542V346L981 353Q1014 352 1035.0 351.5Q1056 351 1058 351Q1112 351 1139.0 391.5Q1166 432 1166 490Q1166 528 1154.5 554.0Q1143 580 1121.5 593.0Q1100 606 1069 606ZM1088 21Q1157 21 1188.0 56.5Q1219 92 1219 157Q1219 231 1183.5 277.5Q1148 324 1070 324Q1060 324 1036.0 323.5Q1012 323 985 318L1018 330V81Q1018 61 1022.5 47.5Q1027 34 1042.0 27.5Q1057 21 1088 21Z"/>
  <rect x="12" y="49" width="40" height="5" rx="2.5" fill="#cc2200"/>
</svg>
